<?xml version="1.0" standalone="no"?><!DOCTYPE svg PUBLIC "-//W3C//DTD SVG 1.1//EN" "http://www.w3.org/Graphics/SVG/1.1/DTD/svg11.dtd"><svg t="1598693099663" class="icon" viewBox="0 0 1024 1024" version="1.1" xmlns="http://www.w3.org/2000/svg" p-id="997" xmlns:xlink="http://www.w3.org/1999/xlink" width="128" height="128"><defs><style type="text/css"></style></defs><path d="M550.836 68.388l258.649 149.338a77.672 77.672 0 0 1 38.836 67.264v298.676a77.672 77.672 0 0 1-37.93 66.746l93.518 161.947-170.414 39.82L622.27 976.454l-96.443-167.02a77.726 77.726 0 0 1-35.833-1.943l-97.53 168.963L281.21 852.18l-170.413-39.846 96.106-166.426a77.672 77.672 0 0 1-31.224-62.267V284.99a77.672 77.672 0 0 1 38.836-67.264L473.164 68.388a77.672 77.672 0 0 1 77.672 0zM273.883 685.183l-43.497 75.342 92.353 21.567 56.053 62.656 42.85-74.255-147.76-85.31z m469.218 4.04l-147.733 85.31 40.571 70.215 56.054-62.656 92.326-21.54-41.166-71.33zM512 135.677L253.351 284.99v298.676L512 733.004l258.649-149.338V284.99L512 135.652z m0 143.305a155.345 155.345 0 1 1 0 310.69 155.345 155.345 0 0 1 0-310.69z m0 77.672A77.672 77.672 0 1 0 512 512a77.672 77.672 0 0 0 0-155.345z" p-id="998"></path></svg>