<?xml version="1.0" standalone="no"?><!DOCTYPE svg PUBLIC "-//W3C//DTD SVG 1.1//EN" "http://www.w3.org/Graphics/SVG/1.1/DTD/svg11.dtd"><svg t="1598693381914" class="icon" viewBox="0 0 1024 1024" version="1.1" xmlns="http://www.w3.org/2000/svg" p-id="3010" xmlns:xlink="http://www.w3.org/1999/xlink" width="128" height="128"><defs><style type="text/css"></style></defs><path d="M127.5 389.7c16.1 0 29.2-13.1 29.2-29.2V197c0-21.4 17.4-38.9 38.9-38.9H372c16.1 0 29.2-13.1 29.2-29.2S388 99.8 371.9 99.8H195.5c-53.6 0-97.2 43.6-97.2 97.2v163.5c0 16.1 13.1 29.2 29.2 29.2zM828.7 99.8H652.3c-16.1 0-29.2 13.1-29.2 29.2s13.1 29.2 29.2 29.2h176.4c21.4 0 38.9 17.4 38.9 38.9v163.5c0 16.1 13.1 29.2 29.2 29.2s29.2-13.1 29.2-29.2V197c-0.1-53.6-43.7-97.2-97.3-97.2zM371.9 856.2H195.5c-21.4 0-38.9-17.4-38.9-38.9V653.9c0-16.1-13.1-29.2-29.2-29.2s-29.2 13.1-29.2 29.2v163.5c0 53.6 43.6 97.2 97.2 97.2h176.4c16.1 0 29.2-13.1 29.2-29.2s-13-29.2-29.1-29.2zM896.8 624.7c-16.1 0-29.2 13.1-29.2 29.2v163.5c0 21.4-17.4 38.9-38.9 38.9H652.3c-16.1 0-29.2 13.1-29.2 29.2s13.1 29.2 29.2 29.2h176.4c53.6 0 97.2-43.6 97.2-97.2V653.9c0-16.2-13-29.2-29.1-29.2zM482.5 471.9h185.9c16.1 0 29.2-13.1 29.2-29.2s-13.1-29.2-29.2-29.2H482.5c-16.1 0-29.2 13.1-29.2 29.2 0 16.2 13.1 29.2 29.2 29.2zM377.5 471.9h9.7c16.1 0 29.2-13.1 29.2-29.2s-13.1-29.2-29.2-29.2h-9.7c-16.1 0-29.2 13.1-29.2 29.2 0 16.2 13.1 29.2 29.2 29.2zM482.5 603.2h185.9c16.1 0 29.2-13.1 29.2-29.2s-13.1-29.2-29.2-29.2H482.5c-16.1 0-29.2 13.1-29.2 29.2s13.1 29.2 29.2 29.2zM377.5 603.2h9.7c16.1 0 29.2-13.1 29.2-29.2s-13.1-29.2-29.2-29.2h-9.7c-16.1 0-29.2 13.1-29.2 29.2s13.1 29.2 29.2 29.2z" p-id="3011"></path><path d="M209.4 376.5v261.4c0 53.6 43.6 97.2 97.2 97.2h411.1c53.6 0 97.2-43.6 97.2-97.2V376.5c0-53.6-43.6-97.2-97.2-97.2H306.6c-53.6 0-97.2 43.6-97.2 97.2z m547.2 0v261.4c0 21.4-17.4 38.9-38.9 38.9H306.6c-21.4 0-38.9-17.4-38.9-38.9V376.5c0-21.4 17.4-38.9 38.9-38.9h411.1c21.4 0 38.9 17.4 38.9 38.9z" p-id="3012"></path></svg>